<svg width="301" height="75" viewBox="0 0 301 75" fill="none" xmlns="http://www.w3.org/2000/svg">
<path d="M67.6282 20.6698C67.6282 23.7682 65.1178 26.2799 62.0211 26.2799C58.9243 26.2799 56.4139 23.7682 56.4139 20.6698C56.4139 17.5714 58.9243 15.0597 62.0211 15.0597C65.1178 15.0597 67.6282 17.5714 67.6282 20.6698Z" fill="white"/>
<path d="M50.0496 53.6393C71.0505 37.9603 85.0018 21.1292 81.2108 16.046C79.1109 13.2305 72.0083 14.6097 62.5204 19.065L63.4094 21.2765C69.7008 17.9823 74.2146 16.6518 75.3021 18.1099C77.3291 20.8278 66.6837 32.2056 51.5249 43.523C36.3661 54.8404 21.0447 62.5297 22.6554 56.8749L16.6157 52.2813C7.48339 61.6592 1.95214 74.9999 1.95214 74.9999C1.95214 74.9999 18.45 75.2356 50.0496 53.6393Z" fill="white"/>
<path d="M35.671 24.3349L20.7152 61.7491C20.4048 62.5257 20.0515 63.2764 19.6588 63.9988L14.7875 60.0681C10.0019 64.7081 6.12023 70.4022 3.4629 74.8735C2.70236 74.9571 1.93205 74.9999 1.15467 74.9999C0.316813 74.9999 -0.242255 74.1366 0.104415 73.3734C4.67208 63.3179 28.898 9.99278 29.6792 8.42957L32.2671 3.25101C34.4333 -1.08367 40.4525 -1.08367 42.6187 3.25101L45.2066 8.42957C45.65 9.31682 53.5819 26.879 61.1872 43.7401C57.8623 46.5053 54.0581 49.4174 49.9336 52.3161C49.9016 52.3386 49.8696 52.361 49.8376 52.3835L38.6763 24.3372C38.1355 22.9785 36.2139 22.977 35.671 24.3349Z" fill="white"/>
<path d="M52.5553 59.2126L53.4313 61.4138C56.6958 69.6169 64.6289 74.9999 73.4537 74.9999C74.3092 74.9999 74.8829 74.1237 74.5313 73.3433C72.882 69.6823 68.6974 60.3948 63.9884 49.9515C60.5647 52.9869 56.7223 56.1096 52.5553 59.2126Z" fill="white"/>
<path d="M93.6292 74.6405C89.4624 74.6405 86.421 73.6576 84.5052 71.6917C82.5894 69.7259 81.7034 66.2976 81.8471 61.407C81.8471 61.407 82.1344 45.6083 82.1344 43.2828C82.1344 40.1125 82.1343 36.9901 82.1342 33.8614C82.1341 29.1344 85.9619 25.3024 90.6837 25.3024V36.0906H100.454V43.2828H90.6837V61.335C90.6837 63.0132 90.8992 64.2838 91.3303 65.1469C91.7613 66.0099 92.3361 66.6332 93.0545 67.0168C93.7729 67.3525 94.4913 67.5442 95.2098 67.5922L100.023 68.0956V74.6405H93.6292Z" fill="white"/>
<path d="M123.075 75.0001C119.003 75.0001 115.699 74.4247 113.16 73.274C110.622 72.1232 108.754 70.1094 107.557 67.2326C106.407 64.3557 105.832 60.3761 105.832 55.2936C105.832 49.9715 106.431 45.8959 107.628 43.067C108.826 40.1902 110.694 38.2243 113.232 37.1695C115.771 36.1146 119.051 35.5872 123.075 35.5872C127.146 35.5872 130.45 36.1386 132.989 37.2414C135.575 38.3442 137.467 40.334 138.664 43.2108C139.862 46.0398 140.46 50.0673 140.46 55.2936C140.46 60.472 139.862 64.4996 138.664 67.3764C137.515 70.2053 135.671 72.1952 133.132 73.3459C130.594 74.4487 127.241 75.0001 123.075 75.0001ZM123.075 67.8799C124.99 67.8799 126.571 67.6162 127.816 67.0887C129.109 66.5613 130.043 65.4106 130.618 63.6365C131.241 61.8145 131.552 59.0096 131.552 55.2217C131.552 51.4818 131.241 48.7248 130.618 46.9508C130.043 45.1767 129.109 44.026 127.816 43.4985C126.571 42.9711 124.99 42.7074 123.075 42.7074C121.159 42.7074 119.578 42.9711 118.333 43.4985C117.136 44.026 116.226 45.1767 115.603 46.9508C114.98 48.7248 114.669 51.4818 114.669 55.2217C114.669 59.0096 114.98 61.8145 115.603 63.6365C116.226 65.4106 117.136 66.5613 118.333 67.0887C119.578 67.6162 121.159 67.8799 123.075 67.8799Z" fill="white"/>
<path d="M148.375 74.6405V36.0906H155.631L157.284 40.1182C159.056 38.8716 160.996 37.7928 163.103 36.8818C165.258 35.9228 167.797 35.4433 170.718 35.4433C173.113 35.4433 175.125 35.9708 176.753 37.0256C178.382 38.0805 179.627 39.399 180.489 40.9813C181.591 40.1662 182.932 39.3271 184.512 38.464C186.093 37.601 187.745 36.8818 189.469 36.3064C191.241 35.731 192.99 35.4433 194.714 35.4433C197.683 35.4433 200.054 36.0427 201.826 37.2414C203.598 38.3921 204.867 40.0223 205.634 42.132C206.448 44.1938 206.855 46.5912 206.855 49.3242V74.6405H197.947V50.0434C197.947 47.9816 197.372 46.3754 196.222 45.2246C195.073 44.0739 193.516 43.4985 191.553 43.4985C189.828 43.4985 188.08 43.8342 186.308 44.5054C184.584 45.1767 183.003 45.9918 181.567 46.9508C181.902 48.0536 182.069 49.1563 182.069 50.2591V74.6405H173.161V50.0434C173.161 47.9816 172.586 46.3754 171.437 45.2246C170.287 44.0739 168.731 43.4985 166.767 43.4985C164.899 43.4985 163.223 43.7862 161.738 44.3616C160.253 44.937 158.769 45.7041 157.284 46.6631V74.6405H148.375Z" fill="white"/>
<path d="M215.658 74.6405V36.0906H224.566V74.6405H215.658Z" fill="white"/>
<path d="M232.539 74.6405V68.1676L252.08 43.2828H231.892V36.0906H262.425V42.5636L242.812 67.4483H262.425V74.6405H232.539Z" fill="white"/>
<path d="M285.413 75.0001C281.246 75.0001 277.918 74.4247 275.427 73.274C272.984 72.1232 271.212 70.1334 270.111 67.3045C269.057 64.4277 268.53 60.448 268.53 55.3656C268.53 50.1872 269.033 46.1596 270.039 43.2828C271.093 40.4059 272.841 38.4161 275.283 37.3133C277.726 36.1626 281.031 35.5872 285.198 35.5872C288.838 35.5872 291.783 35.9708 294.034 36.7379C296.285 37.4571 297.914 38.7757 298.92 40.6936C299.973 42.6115 300.5 45.2726 300.5 48.6769C300.5 52.4168 299.422 55.006 297.267 56.4444C295.112 57.8828 292.214 58.602 288.574 58.602H277.295C277.391 60.9994 277.702 62.9173 278.229 64.3557C278.804 65.7462 279.809 66.7531 281.246 67.3764C282.731 67.9997 284.886 68.3114 287.712 68.3114H299.351V73.5617C297.387 73.9452 295.303 74.2809 293.1 74.5686C290.945 74.8562 288.383 75.0001 285.413 75.0001ZM277.223 53.2079H287.712C289.388 53.2079 290.61 52.8963 291.376 52.2729C292.19 51.6017 292.597 50.403 292.597 48.6769C292.597 46.1836 292.023 44.4575 290.873 43.4985C289.772 42.5396 287.88 42.0601 285.198 42.0601C283.186 42.0601 281.582 42.3718 280.384 42.9951C279.235 43.6184 278.42 44.7452 277.942 46.3754C277.463 48.0056 277.223 50.2831 277.223 53.2079Z" fill="white"/>
<path d="M225.746 25.3091C225.746 28.41 223.235 30.9238 220.138 30.9238C217.04 30.9238 214.529 28.41 214.529 25.3091C214.529 22.2081 217.04 19.6943 220.138 19.6943C223.235 19.6943 225.746 22.2081 225.746 25.3091Z" fill="white"/>
</svg>